# xmcd
#
# Track frame offsets: 
#        150
#        20039
#        37957
#        57791
#        76633
#        91821
#        116357
#        137969
#        156855
#        181942
#        203734
#        225978
#
# Disc length: 3408 seconds
#
# Revision: 0
# Processed by: cddbd v1.5.2PL0 Copyright (c) Steve Scherf et al.
# Submitted via: ExactAudioCopy v1.0b3
#
DISCID=880d4e0c
DTITLE=Cameron McGill and What Army - Is a Beast
DYEAR=2011
DGENRE=Indie
TTITLE0=Houdini
TTITLE1=I Don't Believe in Magic (But All My Friends Just Disappeared)
TTITLE2=Dead Rose
TTITLE3=Let's Make Dinsoaurs Extinct
TTITLE4=The Road to Hell is Paved With Adverbs
TTITLE5=Michelangelo's Blue Period
TTITLE6=Sad Ambassador
TTITLE7=Me Demons Are Organized
TTITLE8=Someone in Another Life (Schizo Blues)
TTITLE9=Counterfeit
TTITLE10=Dublin Fight Song
TTITLE11=Serious Trust
EXTD=
EXTT0=
EXTT1=
EXTT2=
EXTT3=
EXTT4=
EXTT5=
EXTT6=
EXTT7=
EXTT8=
EXTT9=
EXTT10=
EXTT11=
PLAYORDER=
